<?xml version="1.0" encoding="utf-8"?>
<!-- Generator: Adobe Illustrator 21.1.0, SVG Export Plug-In . SVG Version: 6.00 Build 0)  -->
<svg version="1.1" id="Layer_1" xmlns="http://www.w3.org/2000/svg" xmlns:xlink="http://www.w3.org/1999/xlink" x="0px" y="0px"
	 viewBox="0 0 512 512" style="enable-background:new 0 0 512 512;" xml:space="preserve">
<style type="text/css">
	.st0{fill:#242424;}
</style>
<g>
	<g>
		<path class="st0" d="M256,0C114.8,0,0,114.8,0,256s114.8,256,256,256s256-114.8,256-256S397.2,0,256,0z M421,311.5
			c0,60.3-49.1,109.4-109.4,109.4H200.5c-60.4,0-109.4-49-109.4-109.4V200.4C91.1,140.1,140.2,91,200.5,91h111.2
			c60.3,0,109.4,49.1,109.4,109.4v111.1H421z"/>
		<rect x="332.6" y="144" class="st0" width="35" height="35.1"/>
		<path class="st0" d="M256,321c35.9,0,65-29.2,65-65c0-13.4-4-26.2-11.7-37.2c-12.1-17.4-32-27.9-53.3-27.9s-41.2,10.4-53.4,27.9
			c-7.6,10.9-11.7,23.8-11.7,37.2C191,291.8,220.2,321,256,321z"/>
		<path class="st0" d="M338.1,256c0,45.3-36.8,82.1-82.1,82.1s-82.1-36.8-82.1-82.1c0-11.7,2.5-23,7.2-33.5h-73v89.1
			c0,50.9,41.4,92.3,92.3,92.3h111.2c50.9,0,92.3-41.4,92.3-92.3v-89.1h-73C335.6,232.9,338.1,244.3,338.1,256z"/>
	</g>
</g>
</svg>
