<?xml version="1.0" encoding="utf-8"?>
<!-- Generator: Adobe Illustrator 21.0.0, SVG Export Plug-In . SVG Version: 6.00 Build 0)  -->
<svg version="1.1" id="Layer_1" xmlns="http://www.w3.org/2000/svg" xmlns:xlink="http://www.w3.org/1999/xlink" x="0px" y="0px"
	 viewBox="0 0 100 125" style="enable-background:new 0 0 100 125;" xml:space="preserve">
<style type="text/css">
	.st0{fill:#FAB940;}
</style>
<g>
	<path class="st0" d="M83.6,79.4L67.2,63c4.1-5,6.5-11.4,6.5-18.4c0-16.1-13.1-29.1-29.1-29.1S15.5,28.6,15.5,44.6
		s13.1,29.1,29.1,29.1c7,0,13.3-2.5,18.4-6.5l16.4,16.4c0.6,0.6,1.4,0.9,2.1,0.9s1.5-0.3,2.1-0.9C84.8,82.5,84.8,80.5,83.6,79.4z
		 M21.5,44.6c0-12.8,10.4-23.1,23.1-23.1s23.1,10.4,23.1,23.1S57.4,67.8,44.6,67.8S21.5,57.4,21.5,44.6z"/>
</g>
</svg>
